Coordinates
version=1
nRows=6
nColumns=36
inDegrees=yes

Units are S.I. units (second, meters, Newtons, ...)
If the header above contains a line with 'inDegrees', this indicates whether rotational values are in degrees (yes) or radians (no).

endheader
time	pelvis_tilt	pelvis_list	pelvis_rotation	pelvis_tx	pelvis_ty	pelvis_tz	hip_flexion_r	hip_adduction_r	hip_rotation_r	knee_angle_r	knee_angle_r_beta	ankle_angle_r	subtalar_angle_r	mtp_angle_r	hip_flexion_l	hip_adduction_l	hip_rotation_l	knee_angle_l	knee_angle_l_beta	ankle_angle_l	subtalar_angle_l	mtp_angle_l	lumbar_extension	lumbar_bending	lumbar_rotation	arm_flex_r	arm_add_r	arm_rot_r	elbow_flex_r	pro_sup_r	arm_flex_l	arm_add_l	arm_rot_l	elbow_flex_l	pro_sup_l
      0.00000000	     -0.46394929	      0.18014171	     -4.09777177	      0.38387542	      0.95873734	     -0.02056399	     -2.38082011	     -6.33913480	     -2.29003067	      8.20911566	      0.14327610	     -1.84330467	    -15.78592932	     -5.44932856	     -3.29256548	     -5.73443062	     -3.61651984	      6.09723852	      0.10641689	      1.02677140	    -14.48310265	     -5.44932856	     -6.33334299	      1.30313522	     -0.96267998	     -0.01164511	     -5.97492561	      0.94590159	     25.89259331	     79.74748717	      0.02584257	     -5.08334538	      4.42370722	     21.23484700	     72.47138564
      0.01666670	     -1.34326520	      0.28060746	     -4.51919028	      0.38446329	      0.95536449	     -0.02104394	     -1.70924161	     -6.43467449	     -1.87515930	      7.43559194	      0.12977556	      1.78298601	    -12.16052518	     -6.27665677	     -2.27115287	     -5.42838653	     -3.57235822	      5.15901801	      0.09004185	      1.68889487	    -12.99361683	     -6.27665677	     -4.46379744	      1.61075475	     -1.31126623	     -0.00592982	     -4.49650639	     -6.90021736	     25.13759946	     82.32790131	     -0.99104316	     -2.95683166	     -7.81333979	     21.40321895	     78.31391116
      0.03333330	     -1.47586477	      0.51963834	     -4.70235098	      0.38415843	      0.95534026	     -0.02083911	     -1.72508433	     -6.89135285	     -2.28768478	      6.73858703	      0.11761053	      1.59952895	    -12.58052468	     -6.47659615	     -2.35305099	     -5.27459681	     -4.09411884	      4.67151654	      0.08153334	      1.80831442	    -11.80456275	     -6.47659615	     -4.36329304	      1.16705189	     -1.07661607	     -0.23837434	     -3.90791646	     -9.95069829	     25.55796643	     80.38345084	     -1.05433613	     -2.88293902	     -8.83670553	     21.17802389	     77.36484549
      0.05000000	     -0.87684943	      0.61702942	     -4.57874145	      0.38355654	      0.95626067	     -0.02134473	     -2.48805907	     -7.12745656	     -2.19244940	      6.29941674	      0.10994556	      1.94473865	    -12.92325226	     -6.49827169	     -3.64001073	     -5.11158718	     -3.99147555	      3.48645098	      0.06085005	      1.66428406	    -11.47702137	     -6.49827169	     -4.95358781	      0.71415471	     -0.87589860	      0.03801285	     -3.75866154	    -10.17578042	     25.02121922	     79.91371217	     -0.96431850	     -3.04510450	     -8.69812421	     20.89560028	     77.01756853
      0.06666670	     -0.94120660	      0.63382556	     -4.30422724	      0.38275917	      0.95619276	     -0.03081870	     -2.33846759	     -7.35804471	     -2.25479296	      6.30432412	      0.11003121	      2.22602072	    -13.16638338	     -6.50044154	     -3.78485336	     -4.85375837	     -3.70244109	      3.00401322	      0.05242992	      1.91379959	    -11.34285861	     -6.50044154	     -5.06557545	      0.83737182	     -0.90464449	      0.26067090	     -4.10932723	    -10.26713321	     25.01841046	     79.88926843	     -0.72140559	     -2.97538930	     -8.66605072	     20.92645742	     77.01405506
      0.08333330	     -0.04940566	      0.70476941	     -3.94351680	      0.38202275	      0.95711869	     -0.03089095	     -3.41448541	     -7.56512065	     -2.31010909	      6.18667242	      0.10797780	      2.55397135	    -13.54822540	     -6.54867034	     -5.04366934	     -4.57432635	     -3.46403913	      2.40695055	      0.04200921	      1.96767884	    -10.97520655	     -6.54867034	     -5.98904364	      0.53096296	     -0.82648935	      0.63560938	     -3.98378729	    -10.52151238	     24.63311409	     79.17001771	     -0.06445155	     -3.03335058	     -8.52027782	     20.46832644	     76.42452878
